<svg width="17" height="16" viewBox="0 0 17 16" fill="none" xmlns="http://www.w3.org/2000/svg">
<path fill-rule="evenodd" clip-rule="evenodd" d="M2.88332 1.19001C3.74271 0.333357 5.18363 0.572912 5.79203 1.58369L5.79626 1.59072L7.19873 3.9874C7.61173 4.70786 7.50754 5.63404 6.89139 6.24823L6.65878 6.48011C7.4824 7.77193 8.73356 9.04998 9.99824 9.8165L10.2295 9.61163C10.8456 9.01091 11.7653 8.91217 12.4821 9.32045L12.4873 9.32339L14.8606 10.7034C15.4482 10.9847 15.7574 11.5282 15.8207 12.0709C15.884 12.613 15.7104 13.2015 15.2884 13.6221L14.4887 14.4193C13.6584 15.247 12.3067 15.6133 11.1533 15.0906C9.63501 14.4702 7.35786 13.2994 5.28248 11.2306C3.20167 9.1564 2.02877 6.81563 1.41253 5.38373C0.886824 4.23743 1.24909 2.89339 2.07361 2.06362L2.86487 1.20916C2.87089 1.20265 2.87704 1.19627 2.88332 1.19001ZM3.83306 2.12243L3.04454 2.97395C3.03852 2.98045 3.03236 2.98684 3.02608 2.9931C2.52693 3.49066 2.36085 4.26142 2.62679 4.83579C2.62935 4.84133 2.63184 4.84689 2.63425 4.85249C3.2185 6.21142 4.31098 8.38321 6.22496 10.2911C8.14235 12.2024 10.2567 13.2895 11.6707 13.8661C11.6798 13.8698 11.6888 13.8737 11.6977 13.8778C12.2739 14.1429 13.0471 13.9774 13.5462 13.4798L14.346 12.6826C14.4571 12.5718 14.5168 12.3963 14.4968 12.2243C14.478 12.0633 14.3981 11.9529 14.2748 11.8971C14.2543 11.8878 14.2343 11.8774 14.2148 11.8661L11.8187 10.4728C11.6088 10.3545 11.3395 10.3839 11.1566 10.5663C11.1473 10.5755 11.1378 10.5844 11.1281 10.593L10.5283 11.1245C10.3217 11.3075 10.0233 11.3445 9.77806 11.2174C7.97998 10.2853 6.2255 8.45716 5.23889 6.70096C5.0931 6.44144 5.13813 6.11696 5.34912 5.90663L5.94891 5.30875C6.13187 5.12637 6.1614 4.85795 6.04264 4.64867L4.64738 2.2644C4.45746 1.95291 4.04186 1.92449 3.83306 2.12243Z" fill="#804EF6"/>
<path fill-rule="evenodd" clip-rule="evenodd" d="M11.337 5.16309C11.0027 4.82882 10.4864 4.709 10.1213 4.8307C9.74135 4.95733 9.33073 4.75202 9.20409 4.37212C9.07746 3.99222 9.28277 3.58159 9.66267 3.45496C10.6027 3.14161 11.6815 3.45683 12.3624 4.13767C13.0432 4.81852 13.3585 5.89735 13.0451 6.83739C12.9185 7.21729 12.5078 7.4226 12.1279 7.29597C11.748 7.16934 11.5427 6.75871 11.6694 6.37881C11.7911 6.01371 11.6712 5.49736 11.337 5.16309Z" fill="#804EF6"/>
<path fill-rule="evenodd" clip-rule="evenodd" d="M13.1329 3.36708C11.9501 2.18431 10.2308 1.76806 8.6903 2.18282C8.32764 2.28045 7.9545 2.06561 7.85686 1.70296C7.75923 1.3403 7.97407 0.967163 8.33672 0.869525C10.3323 0.332241 12.5572 0.868027 14.0946 2.40537C15.6319 3.94272 16.1677 6.16759 15.6304 8.16322C15.5328 8.52587 15.1596 8.74071 14.797 8.64307C14.4343 8.54544 14.2195 8.17229 14.3171 7.80964C14.7319 6.26913 14.3156 4.54984 13.1329 3.36708Z" fill="#804EF6"/>
</svg>
