<svg width="16" height="16" viewBox="0 0 16 16" fill="none" xmlns="http://www.w3.org/2000/svg">
<path fill-rule="evenodd" clip-rule="evenodd" d="M11.7142 6.95245L12.6667 6.00002C13.4031 5.26364 13.4031 4.06973 12.6667 3.33335C11.9303 2.59697 10.7364 2.59697 10 3.33335L9.03169 4.30168C9.66123 5.41183 10.5887 6.33198 11.7142 6.95245ZM7.57683 5.75654L3.52306 9.81031L3.52305 9.81032C3.098 10.2354 2.88547 10.4479 2.74574 10.709C2.606 10.9701 2.54706 11.2648 2.42917 11.8543L2.1471 13.2646C2.08058 13.5972 2.04732 13.7635 2.14193 13.8581C2.23654 13.9527 2.40284 13.9195 2.73545 13.8529L4.14577 13.5709C4.73522 13.453 5.02994 13.394 5.29104 13.2543C5.55214 13.1146 5.76467 12.902 6.18973 12.477L10.2556 8.41111C9.18143 7.72546 8.26873 6.81885 7.57683 5.75654Z" fill="#804EF6"/>
</svg>
