<svg width="120" height="72" viewBox="0 0 120 72" fill="none" xmlns="http://www.w3.org/2000/svg">
<path d="M66.9339 52.8149L75.6712 51.6494V51.3131C71.0092 51.3131 66.3472 51.4069 61.693 51.3131C54.6062 51.1175 47.4724 51.1645 40.4795 50.3431C35.8175 49.7878 31.5466 47.4333 28.5898 43.7882C41.5042 44.4687 54.5593 45.1962 67.6691 45.8767C67.7161 45.4856 67.7161 45.1023 67.763 44.6643C61.74 44.0854 55.6231 43.8899 49.6548 42.8652C40.2839 41.2147 30.913 39.3218 21.7377 36.8422C15.6677 35.1917 12.4137 31.7421 10.1375 26.7438C29.0201 34.2687 48.0043 38.4457 67.763 38.9307C63.1479 38.2032 58.5407 37.5696 53.9257 36.7014C40.8158 34.2765 27.9093 31.0225 16.1605 24.4676C12.0226 22.1366 8.2054 19.2815 4.80278 15.9728C2.66734 13.8843 1.54878 10.7319 0 8.05677C0.336351 7.81429 0.680528 7.61874 0.969947 7.37625C3.25401 9.17534 5.48331 11.0683 7.86123 12.7657C19.4145 21.065 32.7199 25.1481 46.1661 28.8793C58.353 32.2741 70.6807 35.2386 82.5233 39.6112C96.3607 44.7112 102.235 54.7548 101.312 68.7877C101.265 69.3665 101.117 69.9532 100.874 71.4081C99.951 69.3665 99.3722 68.1541 98.8872 66.8947C95.9774 59.1274 89.7588 56.0689 82.0931 55.3415C78.6436 55.0051 75.1002 55.3884 71.6584 55.1459C70.0079 55.0521 68.4514 54.3715 66.8557 53.9335C66.84 53.558 66.8713 53.1826 66.9339 52.8149Z" fill="url(#paint0_linear_26_112)"/>
<path d="M116.158 36.7952L111.058 34.4173C110.91 34.652 110.777 34.8945 110.667 35.1448C113.726 36.5058 116.784 37.9138 119.843 39.2749C119.749 39.5643 119.647 39.9085 119.553 40.1979C110.182 38.8838 104.503 44.4218 99.4034 51.5086C94.8431 43.3502 87.2166 39.5643 79.5509 35.7314C85.2767 34.2296 90.8148 31.75 96.345 35.6376C94.452 33.9402 92.5121 32.2897 90.1812 30.2481C96.3919 30.2481 101.687 30.0995 106.928 30.2951C110.769 30.4828 114.555 31.3589 116.158 36.7952Z" fill="url(#paint1_linear_26_112)"/>
<path d="M61.255 30.7253C47.0814 27.1819 32.6652 23.5915 19.9464 15.5817C16.1136 13.1568 12.8596 9.70724 9.70727 6.35937C8.25236 4.80277 7.76738 2.37792 7.28241 0C14.8542 7.47794 23.2082 13.5948 32.673 18.0613C42.1299 22.5199 51.7355 26.5013 61.255 30.7253Z" fill="url(#paint2_linear_26_112)"/>
<defs>
<linearGradient id="paint0_linear_26_112" x1="11.7999" y1="27.595" x2="64.8723" y2="67.7404" gradientUnits="userSpaceOnUse">
<stop stop-color="#A329CD"/>
<stop offset="1" stop-color="#7700C7"/>
</linearGradient>
<linearGradient id="paint1_linear_26_112" x1="84.5865" y1="36.0046" x2="102.859" y2="52.4973" gradientUnits="userSpaceOnUse">
<stop stop-color="#A329CD"/>
<stop offset="1" stop-color="#7700C7"/>
</linearGradient>
<linearGradient id="paint2_linear_26_112" x1="13.4623" y1="9.92215" x2="39.8995" y2="31.4062" gradientUnits="userSpaceOnUse">
<stop stop-color="#A329CD"/>
<stop offset="1" stop-color="#7700C7"/>
</linearGradient>
</defs>
</svg>
