<svg width="17" height="16" viewBox="0 0 17 16" fill="none" xmlns="http://www.w3.org/2000/svg">
<path fill-rule="evenodd" clip-rule="evenodd" d="M4.24488 3.33333C3.33071 3.33333 2.50002 4.15174 2.50002 5.31494V10.6851C2.50002 11.8483 3.33071 12.6667 4.24488 12.6667H12.8192C13.7362 12.6667 14.5494 11.8509 14.4977 10.7154C14.4973 10.7053 14.497 10.6952 14.497 10.6851V5.31494C14.497 4.15174 13.6663 3.33333 12.7522 3.33333H4.24488ZM1.16669 5.31494C1.16669 3.53562 2.47957 2 4.24488 2H12.7522C14.5175 2 15.8304 3.53562 15.8304 5.31494V10.6707C15.9041 12.4708 14.5764 14 12.8192 14H4.24488C2.47957 14 1.16669 12.4644 1.16669 10.6851V5.31494Z" fill="#804EF6"/>
<path fill-rule="evenodd" clip-rule="evenodd" d="M3.91997 5.00459C4.10151 4.68426 4.50834 4.57175 4.82867 4.75328L7.94786 6.52098C8.30896 6.71517 8.69099 6.71517 9.05209 6.52098L12.1713 4.75328C12.4916 4.57175 12.8984 4.68426 13.08 5.00459C13.2615 5.32492 13.149 5.73175 12.8287 5.91329L9.70367 7.68428L9.69302 7.69019C8.93216 8.10321 8.06779 8.10321 7.30692 7.69019L7.29628 7.68428L4.17128 5.91329C3.85095 5.73175 3.73844 5.32492 3.91997 5.00459Z" fill="#804EF6"/>
</svg>
