<svg width="17" height="16" viewBox="0 0 17 16" fill="none" xmlns="http://www.w3.org/2000/svg">
<g clip-path="url(#clip0_0_983)">
<path d="M8.95134 5.24387C10.2184 5.24387 11.2456 4.21668 11.2456 2.94957C11.2456 1.68247 10.2184 0.655273 8.95134 0.655273C7.68424 0.655273 6.65704 1.68247 6.65704 2.94957C6.65704 4.21668 7.68424 5.24387 8.95134 5.24387Z" fill="#804EF6"/>
<path opacity="0.1" d="M8.78765 3.44116H6.70966L6.71998 3.48688L6.72096 3.49081L6.73178 3.53309C6.88277 4.10566 7.24911 4.59777 7.7543 4.90666C8.2595 5.21555 8.86449 5.31733 9.44295 5.19077V4.09647C9.44243 3.92283 9.37323 3.75645 9.25045 3.63367C9.12766 3.51089 8.96129 3.44168 8.78765 3.44116Z" fill="#804EF6"/>
<path opacity="0.2" d="M8.29601 3.93274H6.87823C7.06431 4.32505 7.35788 4.6565 7.72485 4.88859C8.09182 5.12067 8.51711 5.24386 8.95131 5.24384V4.58804C8.95079 4.4144 8.88159 4.24803 8.75881 4.12525C8.63602 4.00247 8.46965 3.93326 8.29601 3.93274Z" fill="#804EF6"/>
<path d="M14.1131 5.40763C15.0634 5.40763 15.8337 4.63729 15.8337 3.68703C15.8337 2.73677 15.0634 1.96643 14.1131 1.96643C13.1629 1.96643 12.3925 2.73677 12.3925 3.68703C12.3925 4.63729 13.1629 5.40763 14.1131 5.40763Z" fill="#804EF6"/>
<path d="M15.5879 5.89917H11.7234C11.64 5.89917 11.56 5.93232 11.501 5.99132C11.442 6.05032 11.4088 6.13035 11.4088 6.21379V10.2007C11.3982 10.7777 11.5861 11.3408 11.9411 11.7958C12.2961 12.2508 12.7967 12.57 13.359 12.7C13.7171 12.7751 14.0875 12.7694 14.4432 12.6834C14.7988 12.5973 15.1308 12.433 15.4149 12.2025C15.6991 11.9719 15.9283 11.6809 16.0857 11.3506C16.2432 11.0203 16.3251 10.659 16.3253 10.2931V6.63657C16.3253 6.441 16.2476 6.25344 16.1093 6.11515C15.971 5.97686 15.7835 5.89917 15.5879 5.89917Z" fill="#804EF6"/>
<path d="M12.8842 6.63657V11.3068C12.8846 12.1723 12.5994 13.0137 12.0728 13.7005C11.5462 14.3873 10.8075 14.8811 9.97158 15.1052C9.13562 15.3294 8.24905 15.2713 7.44947 14.94C6.64989 14.6087 5.98201 14.0228 5.54948 13.2732C5.45488 13.1159 5.3727 12.9516 5.30368 12.7816C5.23934 12.6213 5.18516 12.4571 5.14146 12.29C5.06041 11.9685 5.01913 11.6383 5.01856 11.3068V6.63657C5.01843 6.5397 5.03741 6.44375 5.07442 6.35423C5.11143 6.2647 5.16575 6.18336 5.23425 6.11486C5.30275 6.04636 5.38409 5.99205 5.47361 5.95504C5.56314 5.91803 5.65908 5.89904 5.75596 5.89917H12.1468C12.2436 5.89904 12.3396 5.91803 12.4291 5.95504C12.5186 5.99205 12.6 6.04636 12.6685 6.11486C12.737 6.18336 12.7913 6.2647 12.8283 6.35423C12.8653 6.44375 12.8843 6.5397 12.8842 6.63657Z" fill="#804EF6"/>
<path opacity="0.2" d="M8.29601 3.93274H6.87823C7.06431 4.32505 7.35788 4.6565 7.72485 4.88859C8.09182 5.12067 8.51711 5.24386 8.95131 5.24384V4.58804C8.95079 4.4144 8.88159 4.24803 8.75881 4.12525C8.63602 4.00247 8.46965 3.93326 8.29601 3.93274Z" fill="#804EF6"/>
<path opacity="0.1" d="M9.44295 5.89917V12.1277C9.44296 12.2759 9.39224 12.4197 9.29923 12.535C9.20621 12.6504 9.07651 12.7305 8.93169 12.7619C8.88544 12.7757 8.83737 12.7823 8.78913 12.7816H5.30368C5.23934 12.6213 5.18516 12.4571 5.14146 12.29C5.06041 11.9685 5.01913 11.6383 5.01856 11.3068V6.63657C5.01843 6.5397 5.03741 6.44375 5.07442 6.35423C5.11143 6.2647 5.16575 6.18336 5.23425 6.11486C5.30275 6.04636 5.38409 5.99205 5.47361 5.95504C5.56314 5.91803 5.65908 5.89904 5.75596 5.89917H9.44295Z" fill="#804EF6"/>
<path opacity="0.2" d="M8.95136 5.89917V12.6193C8.95207 12.6676 8.94544 12.7157 8.93169 12.7619C8.90026 12.9067 8.8202 13.0364 8.70483 13.1294C8.58945 13.2225 8.44572 13.2732 8.29753 13.2732H5.54948C5.45488 13.1159 5.3727 12.9516 5.30368 12.7816C5.23934 12.6213 5.18516 12.4571 5.14146 12.29C5.06041 11.9685 5.01913 11.6383 5.01856 11.3068V6.63657C5.01843 6.5397 5.03741 6.44375 5.07442 6.35423C5.11144 6.2647 5.16575 6.18336 5.23425 6.11486C5.30275 6.04636 5.38409 5.99205 5.47361 5.95504C5.56314 5.91803 5.65908 5.89904 5.75596 5.89917H8.95136Z" fill="#804EF6"/>
<path opacity="0.2" d="M8.95135 5.89917V11.6361C8.95058 11.8093 8.88144 11.9752 8.759 12.0976C8.63655 12.2201 8.47069 12.2892 8.29753 12.29H5.14146C5.06041 11.9685 5.01913 11.6383 5.01856 11.3068V6.63657C5.01843 6.5397 5.03741 6.44375 5.07442 6.35423C5.11143 6.2647 5.16575 6.18336 5.23425 6.11486C5.30275 6.04636 5.38409 5.99205 5.47361 5.95504C5.56314 5.91803 5.65908 5.89904 5.75596 5.89917H8.95135Z" fill="#804EF6"/>
<path opacity="0.2" d="M5.75596 5.89917C5.65908 5.89904 5.56314 5.91803 5.47361 5.95504C5.38409 5.99205 5.30275 6.04636 5.23425 6.11486C5.16575 6.18336 5.11144 6.2647 5.07442 6.35423C5.03741 6.44375 5.01843 6.5397 5.01856 6.63657V11.3068C5.01913 11.6383 5.06041 11.9685 5.14146 12.29H7.80593C7.97909 12.2892 8.14495 12.2201 8.2674 12.0976C8.38985 11.9752 8.45898 11.8093 8.45976 11.6361V5.89917H5.75596Z" fill="#804EF6"/>
<path d="M1.24942 3.93274H7.80441C7.97821 3.93274 8.14489 4.00178 8.26778 4.12467C8.39068 4.24757 8.45972 4.41425 8.45972 4.58804V11.143C8.45972 11.3168 8.39068 11.4835 8.26778 11.6064C8.14489 11.7293 7.97821 11.7983 7.80441 11.7983H1.24942C1.07562 11.7983 0.908943 11.7293 0.78605 11.6064C0.663157 11.4835 0.594116 11.3168 0.594116 11.143L0.594116 4.58804C0.594116 4.41425 0.663157 4.24757 0.78605 4.12467C0.908943 4.00178 1.07562 3.93274 1.24942 3.93274Z" fill="#804EF6"/>
<path d="M6.48351 6.37849H5.01363V10.3211H4.04911V6.37849H2.57037V5.41003H6.48351V6.37849Z" fill="white"/>
</g>
<defs>
<clipPath id="clip0_0_983">
<rect width="16" height="15.7312" fill="white" transform="translate(0.5)"/>
</clipPath>
</defs>
</svg>
